<svg width="320" height="320" viewBox="0 0 320 320" fill="none" xmlns="http://www.w3.org/2000/svg">
<g clip-path="url(#clip0_25_11)">
<rect width="320" height="320" fill="white"/>
<rect width="320" height="320" fill="black"/>
<path d="M203.846 181.594V62.606H244.012V184.312C244.012 194.58 242.099 204.345 238.274 213.606C234.65 222.867 229.113 231.122 221.664 238.37C214.416 245.417 205.356 250.953 194.484 254.98C183.813 259.007 171.331 261.02 157.036 261.02C145.963 261.02 135.191 259.611 124.722 256.792C114.454 253.973 105.193 249.745 96.938 244.108C88.6833 238.269 82.0393 231.021 77.006 222.364C71.9727 213.505 69.2547 203.137 68.852 191.258H106.904C109.119 202.734 114.756 211.492 123.816 217.532C133.077 223.371 144.151 226.29 157.036 226.29C168.109 226.29 177.069 224.377 183.914 220.552C190.759 216.525 195.793 211.19 199.014 204.546C202.235 197.701 203.846 190.05 203.846 181.594Z" fill="white"/>
</g>
<defs>
<clipPath id="clip0_25_11">
<rect width="320" height="320" fill="white"/>
</clipPath>
</defs>
</svg>
