<svg width="27" height="24" viewBox="0 0 27 24" fill="none" xmlns="http://www.w3.org/2000/svg">
<path fill-rule="evenodd" clip-rule="evenodd" d="M12.2727 8.59086C12.2727 11.8443 11.39 14.7232 9.6244 17.2275C7.85885 19.7319 5.49043 21.8188 2.51914 23.4883C2.38995 23.5311 2.18541 23.4562 1.9055 23.2636C1.6256 23.0709 1.39952 22.8676 1.22727 22.6536C1.05502 22.4395 0.904306 22.172 0.77512 21.8509C0.645933 21.5298 0.645933 21.3265 0.77512 21.2409C2.23923 20.2563 3.4988 19.2503 4.55383 18.2228C5.60885 17.1954 6.13636 15.6115 6.13636 13.4711C6.13636 12.9574 6.10407 12.5935 6.03947 12.3794C5.97488 12.1654 5.85646 12.0584 5.68421 12.0584C5.55502 12.0584 5.41507 12.0905 5.26435 12.1547C5.11364 12.2189 4.93062 12.251 4.71531 12.251C3.46651 12.251 2.36842 11.8122 1.42105 10.9346C0.473684 10.0571 0 8.67648 0 6.79289C0 5.20897 0.549043 3.76417 1.64713 2.4585C2.74522 1.15283 4.1555 0.5 5.87799 0.5C7.81579 0.5 9.36603 1.27056 10.5287 2.81168C11.6914 4.35279 12.2727 6.27919 12.2727 8.59086ZM27 8.59086C27 11.8443 26.1172 14.7232 24.3517 17.2275C22.5861 19.7319 20.2177 21.8188 17.2464 23.4883C17.1172 23.5311 16.9127 23.4562 16.6328 23.2636C16.3529 23.0709 16.1268 22.8676 15.9545 22.6536C15.7823 22.4395 15.6316 22.172 15.5024 21.8509C15.3732 21.5298 15.3732 21.3265 15.5024 21.2409C16.9665 20.2563 18.2261 19.2503 19.2811 18.2228C20.3361 17.1954 20.8636 15.6115 20.8636 13.4711C20.8636 12.9574 20.8313 12.5935 20.7667 12.3794C20.7022 12.1654 20.5837 12.0584 20.4115 12.0584C20.2823 12.0584 20.1423 12.0905 19.9916 12.1547C19.8409 12.2189 19.6579 12.251 19.4426 12.251C18.1938 12.251 17.0957 11.8122 16.1483 10.9346C15.201 10.0571 14.7273 8.67648 14.7273 6.79289C14.7273 5.20897 15.2763 3.76417 16.3744 2.4585C17.4725 1.15283 18.8828 0.5 20.6053 0.5C22.5431 0.5 24.0933 1.27056 25.256 2.81168C26.4187 4.35279 27 6.27919 27 8.59086Z" fill="#C4C4C4"/>
</svg>
