<svg width="146" height="20" viewBox="0 0 146 20" fill="none" xmlns="http://www.w3.org/2000/svg">
<path d="M10.1804 9.89967V1.11483H13.2095V10.1003C13.2095 10.8584 13.0652 11.5793 12.7767 12.2631C12.5034 12.9469 12.0859 13.5563 11.5241 14.0914C10.9775 14.6117 10.2943 15.0204 9.47438 15.3177C8.66966 15.615 7.7283 15.7637 6.65028 15.7637C5.8152 15.7637 5.0029 15.6596 4.21336 15.4515C3.43902 15.2434 2.74058 14.9313 2.11807 14.5151C1.49555 14.084 0.994506 13.5489 0.614923 12.9097C0.235341 12.2557 0.0303666 11.4902 0 10.6132H2.86964C3.03666 11.4604 3.46179 12.107 4.14504 12.553C4.84347 12.984 5.67855 13.1996 6.65028 13.1996C7.48536 13.1996 8.16102 13.0583 8.67725 12.7759C9.19348 12.4786 9.57307 12.0847 9.816 11.5942C10.0589 11.0888 10.1804 10.524 10.1804 9.89967Z" fill="black"/>
<path d="M29.4165 15.5407H26.4558V4.45931H29.4165V15.5407ZM26.6152 10.2118L26.638 10.9699C26.6076 11.178 26.5317 11.4827 26.4102 11.8841C26.2887 12.2705 26.099 12.6867 25.8408 13.1327C25.5979 13.5786 25.2791 14.0097 24.8843 14.4259C24.4895 14.8272 24.0037 15.1616 23.4267 15.4292C22.8497 15.6819 22.1665 15.8083 21.3769 15.8083C20.7544 15.8083 20.1395 15.7339 19.5322 15.5853C18.94 15.4366 18.401 15.1914 17.9152 14.8495C17.4293 14.4928 17.0421 14.0171 16.7536 13.4225C16.4652 12.8279 16.3209 12.0773 16.3209 11.1706V4.45931H19.2817V10.68C19.2817 11.3935 19.3955 11.9584 19.6233 12.3746C19.8662 12.7759 20.2154 13.0583 20.6709 13.2219C21.1264 13.3854 21.6654 13.4671 22.2879 13.4671C23.1078 13.4671 23.8139 13.2962 24.406 12.9543C24.9982 12.5975 25.4764 12.1665 25.8408 11.6611C26.2204 11.1557 26.4785 10.6726 26.6152 10.2118Z" fill="black"/>
<path d="M32.1121 4.45931H35.0729V15.5407H32.1121V4.45931ZM40.3339 4.21405C41.0323 4.21405 41.6776 4.30323 42.2698 4.48161C42.8619 4.65998 43.3781 4.93497 43.8185 5.30658C44.2588 5.67819 44.6004 6.15385 44.8433 6.73356C45.0863 7.2984 45.2077 7.97473 45.2077 8.76254V15.5407H42.247V9.27536C42.247 8.33891 42.0116 7.65515 41.541 7.22408C41.0855 6.77815 40.3339 6.55518 39.2862 6.55518C38.4967 6.55518 37.7831 6.70383 37.1454 7.00112C36.5077 7.2984 35.9915 7.67744 35.5967 8.13824C35.2019 8.58417 34.9742 9.0524 34.9135 9.54292L34.8907 8.4058C34.9666 7.88554 35.1412 7.38016 35.4145 6.88963C35.6878 6.39911 36.0522 5.95318 36.5077 5.55184C36.9784 5.13564 37.5326 4.80862 38.1703 4.57079C38.808 4.33296 39.5292 4.21405 40.3339 4.21405Z" fill="black"/>
<path d="M58.2432 15.5407V9.45374C58.2432 8.8443 58.1369 8.33891 57.9243 7.93757C57.7118 7.53623 57.3701 7.23151 56.8995 7.02341C56.444 6.81531 55.829 6.71126 55.0547 6.71126C54.3107 6.71126 53.635 6.85247 53.0277 7.13489C52.4204 7.40245 51.9269 7.7592 51.5473 8.20513C51.1678 8.63619 50.9552 9.09699 50.9096 9.58751L50.8869 8.3612C50.9628 7.87068 51.1374 7.38016 51.4107 6.88963C51.684 6.39911 52.0484 5.95318 52.5039 5.55184C52.9594 5.1505 53.506 4.83092 54.1437 4.59309C54.7966 4.34039 55.5254 4.21405 56.3301 4.21405C57.0285 4.21405 57.6738 4.30323 58.2659 4.48161C58.8581 4.64511 59.3743 4.90524 59.8146 5.26198C60.255 5.61873 60.5966 6.06466 60.8395 6.59978C61.0824 7.12003 61.2039 7.7369 61.2039 8.45039V15.5407H58.2432ZM48.1083 15.5407V0H51.0691V15.5407H48.1083Z" fill="black"/>
<path d="M74.2118 11.8618H77.0814C76.96 12.6198 76.6335 13.2962 76.1021 13.8907C75.5859 14.4853 74.8798 14.9535 73.984 15.2954C73.0882 15.6373 71.995 15.8083 70.7044 15.8083C69.262 15.8083 67.9866 15.5853 66.8783 15.1394C65.7699 14.6786 64.9044 14.0171 64.2819 13.155C63.6594 12.2928 63.3481 11.2523 63.3481 10.0334C63.3481 8.81457 63.6518 7.77406 64.2591 6.91193C64.8665 6.03493 65.7091 5.36603 66.7872 4.90524C67.8804 4.44444 69.1558 4.21405 70.6133 4.21405C72.1013 4.21405 73.3387 4.44444 74.3257 4.90524C75.3126 5.36603 76.0414 6.06466 76.5121 7.00112C76.9979 7.92271 77.2029 9.10442 77.127 10.5463H66.3317C66.4076 11.1111 66.6201 11.6239 66.9694 12.0847C67.3338 12.5455 67.8196 12.9097 68.427 13.1773C69.0495 13.4448 69.7859 13.5786 70.6361 13.5786C71.5775 13.5786 72.3594 13.4225 72.9819 13.1104C73.6196 12.7834 74.0296 12.3671 74.2118 11.8618ZM70.4767 6.42141C69.3835 6.42141 68.4953 6.65923 67.812 7.13489C67.1288 7.59569 66.6885 8.16797 66.4911 8.85173H74.189C74.1131 8.10851 73.7487 7.52137 73.0958 7.0903C72.4581 6.64437 71.5851 6.42141 70.4767 6.42141Z" fill="black"/>
<path d="M89.6471 11.8618H92.5168C92.3953 12.6198 92.0689 13.2962 91.5375 13.8907C91.0212 14.4853 90.3152 14.9535 89.4194 15.2954C88.5236 15.6373 87.4304 15.8083 86.1398 15.8083C84.6974 15.8083 83.422 15.5853 82.3136 15.1394C81.2052 14.6786 80.3398 14.0171 79.7173 13.155C79.0948 12.2928 78.7835 11.2523 78.7835 10.0334C78.7835 8.81457 79.0872 7.77406 79.6945 6.91193C80.3018 6.03493 81.1445 5.36603 82.2225 4.90524C83.3157 4.44444 84.5911 4.21405 86.0487 4.21405C87.5367 4.21405 88.7741 4.44444 89.761 4.90524C90.7479 5.36603 91.4767 6.06466 91.9474 7.00112C92.4333 7.92271 92.6383 9.10442 92.5623 10.5463H81.767C81.8429 11.1111 82.0555 11.6239 82.4047 12.0847C82.7691 12.5455 83.255 12.9097 83.8623 13.1773C84.4848 13.4448 85.2212 13.5786 86.0715 13.5786C87.0128 13.5786 87.7948 13.4225 88.4173 13.1104C89.055 12.7834 89.4649 12.3671 89.6471 11.8618ZM85.9121 6.42141C84.8189 6.42141 83.9306 6.65923 83.2474 7.13489C82.5641 7.59569 82.1238 8.16797 81.9264 8.85173H89.6244C89.5485 8.10851 89.1841 7.52137 88.5312 7.0903C87.8935 6.64437 87.0204 6.42141 85.9121 6.42141Z" fill="black"/>
<path d="M103.265 10.8584V8.49498H110.007C110.811 8.49498 111.449 8.28688 111.92 7.87068C112.39 7.43961 112.626 6.84504 112.626 6.08696C112.626 5.29915 112.39 4.69714 111.92 4.28094C111.449 3.86473 110.811 3.65663 110.007 3.65663H103.63V15.5407H100.601V1.11483H109.733C110.553 1.11483 111.32 1.21145 112.034 1.40468C112.762 1.59792 113.393 1.89521 113.924 2.29654C114.471 2.69788 114.896 3.2107 115.199 3.83501C115.503 4.45931 115.655 5.20996 115.655 6.08696C115.655 6.94909 115.503 7.68488 115.199 8.29431C114.896 8.90375 114.471 9.40171 113.924 9.78818C113.393 10.1598 112.762 10.4348 112.034 10.6132C111.32 10.7767 110.553 10.8584 109.733 10.8584H103.265Z" fill="black"/>
<path d="M117.094 4.45931H120.237L125.133 15.0948L122.583 15.5407L117.094 4.45931ZM130.941 4.45931L123.106 20H120.032L123.38 13.8907L127.775 4.45931H130.941Z" fill="black"/>
<path d="M138.826 15.8083C137.399 15.8083 136.138 15.5853 135.045 15.1394C133.967 14.6934 133.125 14.0468 132.517 13.1996C131.91 12.3374 131.606 11.2821 131.606 10.0334C131.606 8.78484 131.91 7.72947 132.517 6.86734C133.125 5.99034 133.967 5.32887 135.045 4.88294C136.138 4.43701 137.399 4.21405 138.826 4.21405C140.253 4.21405 141.498 4.43701 142.561 4.88294C143.639 5.32887 144.482 5.99034 145.089 6.86734C145.696 7.72947 146 8.78484 146 10.0334C146 11.2821 145.696 12.3374 145.089 13.1996C144.482 14.0468 143.639 14.6934 142.561 15.1394C141.498 15.5853 140.253 15.8083 138.826 15.8083ZM138.826 13.5786C139.615 13.5786 140.321 13.4448 140.944 13.1773C141.582 12.8948 142.083 12.4935 142.447 11.9732C142.812 11.4381 142.994 10.7915 142.994 10.0334C142.994 9.27536 142.812 8.62876 142.447 8.09365C142.083 7.54366 141.589 7.12746 140.967 6.84504C140.344 6.56262 139.631 6.42141 138.826 6.42141C138.036 6.42141 137.323 6.56262 136.685 6.84504C136.047 7.12746 135.539 7.53623 135.159 8.07135C134.795 8.60647 134.613 9.2605 134.613 10.0334C134.613 10.7915 134.795 11.4381 135.159 11.9732C135.524 12.4935 136.025 12.8948 136.662 13.1773C137.3 13.4448 138.021 13.5786 138.826 13.5786Z" fill="black"/>
</svg>
